HIERARCHY
ROOT pelvis
{
  OFFSET 0 100 0
  CHANNELS 6 Xposition Yposition Zposition Zrotation Xrotation Yrotation
  JOINT pelvis_right_femur
  {
    OFFSET -10.78128 -3.44521 -0.5502486
    CHANNELS 3 Zrotation Xrotation Yrotation
    JOINT right_femur_tibia
    {
      OFFSET -0.8047443 -44.0398 -0.1307829
      CHANNELS 3 Zrotation Xrotation Yrotation
      JOINT right_tibia_foot
      {
        OFFSET 3.006224 -47.83518 -5
        CHANNELS 3 Zrotation Xrotation Yrotation
        End Site
        {
          OFFSET 0 -5 15
        }
      }
    }
  }
  JOINT pelvis_left_femur
  {
    OFFSET 10.78128 -3.44521 -0.5502486
    CHANNELS 3 Zrotation Xrotation Yrotation
    JOINT left_femur_tibia
    {
      OFFSET 0.8047443 -44.0398 -0.1307829
      CHANNELS 3 Zrotation Xrotation Yrotation
      JOINT left_tibia_foot
      {
        OFFSET -4.370144 -48.10324 -4.275266
        CHANNELS 3 Zrotation Xrotation Yrotation
        End Site
        {
          OFFSET 0 -5 15
        }
      }
    }
  }
  JOINT pelvis_spine1
  {
    OFFSET 0 6.468898 -3.129235
    CHANNELS 3 Zrotation Xrotation Yrotation
    JOINT spine1
    {
      OFFSET 0 23.15396 4.99043
      CHANNELS 3 Zrotation Xrotation Yrotation
      JOINT spine2
      {
        OFFSET 0 20.79997 -5.064912
        CHANNELS 3 Zrotation Xrotation Yrotation
        JOINT neck
        {
          OFFSET 0 14.38658 9.616178
          CHANNELS 3 Zrotation Xrotation Yrotation
          End Site
          {
            OFFSET 0 20 0
          }
        }
      }
      JOINT right_manubrium
      {
        OFFSET -5.722621 16.35077 3.967754
        CHANNELS 3 Zrotation Xrotation Yrotation
        JOINT right_clavicle
        {
          OFFSET -13.16364 1.694482 -4.693211
          CHANNELS 3 Zrotation Xrotation Yrotation
          JOINT right_humerus
          {
            OFFSET -28.5034 -0.3100689 -2.792744
            CHANNELS 3 Zrotation Xrotation Yrotation
            JOINT right_radius
            {
              OFFSET -25.15693 0.02248979 -1.271978
              CHANNELS 3 Zrotation Xrotation Yrotation
              End Site
              {
                OFFSET -15 0 0
              }
            }
          }
        }
      }
      JOINT left_manubrium
      {
        OFFSET 5.722621 16.35077 3.967754
        CHANNELS 3 Zrotation Xrotation Yrotation
        JOINT left_clavicle
        {
          OFFSET 13.16364 1.694482 -4.693211
          CHANNELS 3 Zrotation Xrotation Yrotation
          JOINT left_humerus
          {
            OFFSET 29.39168 -1.063119 -2.237045
            CHANNELS 3 Zrotation Xrotation Yrotation
            JOINT left_radius
            {
              OFFSET 24.59957 -0.9528479 0.9047498
              CHANNELS 3 Zrotation Xrotation Yrotation
              End Site
              {
                OFFSET 15 -0 -0
              }
            }
          }
        }
      }
    }
  }
}
MOTION
Frames: 21
Frame Time: 0.0416666666667
-1633.844 94.02697 968.1534 -7.495819 7.519823 -144.4276 0.8222445 10.01988 -4.384199 -0 32.98937 -0 -14.80143 5.871053 5.097741 -3.713163 -10.37806 -11.90076 -0 26.53843 -0 3.443889 -5.422707 21.78777 -1.71662 -1.428195 4.851619 -1.890534 13.82548 -2.488636 1.048561 24.4993 7.304419 7.181688 -15.5741 5.244569 3.616759 -20.04009 12.66982 84.09524 26.80584 -8.378553 -0 0 16.09653 -27.7928 11.71709 11.21185 7.717168 -21.81298 -7.939416 -94.87486 7.066395 22.06902 -0 0 5.530234 21.38222 17.58237 -16.03209
-1637.425 94.04588 964.5472 -7.455915 7.559369 -144.7317 0.8221256 10.02 -4.384198 -0 32.98997 -0 -14.80143 5.871214 5.097789 -3.713258 -10.378 -11.90091 -0 26.53796 -0 3.443751 -5.422838 21.78778 -1.716655 -1.428171 4.851574 -1.89056 13.82539 -2.488576 1.048571 24.49935 7.304462 7.181688 -15.57412 5.244624 3.616757 -20.04003 12.66977 84.09521 26.80587 -8.378452 -0 0 16.09647 -27.79281 11.71697 11.21192 7.717159 -21.81285 -7.93935 -94.87488 7.06666 22.06904 -0 0 5.530247 21.38197 17.58243 -16.03171
-1640.987 94.06481 960.9221 -7.415796 7.598695 -145.0359 0.822007 10.02003 -4.3842 -0 32.9906 -0 -14.80145 5.871411 5.097856 -3.71336 -10.3779 -11.90107 -0 26.53751 -0 3.443657 -5.422974 21.7878 -1.716692 -1.428153 4.851523 -1.890583 13.82532 -2.48853 1.048574 24.4994 7.304514 7.181698 -15.57416 5.244678 3.61677 -20.03998 12.66974 84.0952 26.80593 -8.378384 -0 0 16.0964 -27.79281 11.71685 11.21197 7.717158 -21.81274 -7.939293 -94.87488 7.066879 22.06903 -0 0 5.530223 21.38178 17.58247 -16.03143
-1644.529 94.08375 957.2781 -7.375464 7.637802 -145.3401 0.821892 10.01997 -4.384207 -0 32.99126 -0 -14.80148 5.871637 5.097937 -3.713466 -10.37774 -11.90122 -0 26.53709 -0 3.443607 -5.423112 21.78782 -1.716729 -1.42814 4.851468 -1.890602 13.82526 -2.488499 1.048569 24.49943 7.304576 7.181718 -15.5742 5.244728 3.616796 -20.03992 12.66971 84.09518 26.806 -8.378349 -0 0 16.09631 -27.79282 11.71675 11.21201 7.717164 -21.81267 -7.939249 -94.87485 7.067047 22.06898 -0 0 5.530164 21.38168 17.58248 -16.03125
-1648.052 94.10271 953.6154 -7.334919 7.676691 -145.6444 0.8217839 10.01983 -4.384217 -0 32.99192 -0 -14.80152 5.871885 5.098031 -3.713573 -10.37755 -11.90137 -0 26.53671 -0 3.443603 -5.423247 21.78783 -1.716765 -1.428133 4.851411 -1.890616 13.82523 -2.488484 1.048556 24.49946 7.304643 7.181747 -15.57426 5.244774 3.616834 -20.03986 12.6697 84.09518 26.80608 -8.378347 -0 0 16.0962 -27.79283 11.71665 11.21203 7.717177 -21.81263 -7.939217 -94.87481 7.067162 22.0689 -0 0 5.530071 21.38165 17.58246 -16.03117
-1651.556 94.12168 949.9341 -7.294163 7.71536 -145.9486 0.8216855 10.01962 -4.384231 -0 32.99256 -0 -14.80157 5.872147 5.098134 -3.713677 -10.37732 -11.90151 -0 26.53639 -0 3.443642 -5.423376 21.78785 -1.7168 -1.428131 4.851354 -1.890625 13.82522 -2.488483 1.048538 24.49948 7.304714 7.181783 -15.57432 5.244814 3.616882 -20.03981 12.6697 84.09518 26.80618 -8.378377 -0 0 16.09609 -27.79283 11.71657 11.21203 7.717197 -21.81262 -7.939199 -94.87475 7.067221 22.0688 -0 0 5.52995 21.3817 17.58243 -16.03119
-1655.04 94.14067 946.2342 -7.253197 7.75381 -146.2529 0.8215994 10.01933 -4.384247 -0 32.99317 -0 -14.80162 5.872414 5.098243 -3.713777 -10.37706 -11.90164 -0 26.53612 -0 3.443722 -5.423494 21.78788 -1.716831 -1.428135 4.851298 -1.890629 13.82523 -2.488498 1.048513 24.49949 7.304787 7.181826 -15.57439 5.244846 3.616938 -20.03976 12.66971 84.09518 26.80629 -8.378438 -0 0 16.09598 -27.79283 11.7165 11.21202 7.717221 -21.81264 -7.939194 -94.87468 7.067226 22.06867 -0 0 5.529805 21.38183 17.58237 -16.03132
-1658.505 94.15967 942.516 -7.212022 7.792041 -146.5573 0.8215276 10.01899 -4.384265 -0 32.99373 -0 -14.80169 5.872679 5.098354 -3.713868 -10.37679 -11.90175 -0 26.53593 -0 3.443838 -5.4236 21.7879 -1.716859 -1.428144 4.851244 -1.890628 13.82526 -2.488525 1.048484 24.49949 7.304859 7.181874 -15.57447 5.244872 3.617002 -20.03971 12.66973 84.09519 26.8064 -8.378525 -0 0 16.09586 -27.79283 11.71646 11.21199 7.717251 -21.81269 -7.939202 -94.87459 7.067178 22.06852 -0 0 5.529641 21.38202 17.5823 -16.03153
-1661.949 94.17869 938.7794 -7.17064 7.830054 -146.8616 0.8214718 10.01861 -4.384285 -0 32.99423 -0 -14.80176 5.872934 5.098465 -3.713949 -10.37651 -11.90184 -0 26.5358 -0 3.443987 -5.423689 21.78792 -1.716882 -1.428158 4.851195 -1.890622 13.8253 -2.488566 1.048451 24.49948 7.304929 7.181925 -15.57454 5.244889 3.617069 -20.03967 12.66975 84.09521 26.80651 -8.378636 -0 0 16.09574 -27.79283 11.71643 11.21194 7.717284 -21.81277 -7.939222 -94.8745 7.06708 22.06836 -0 0 5.529463 21.38227 17.58221 -16.03182
-1665.374 94.19772 935.0247 -7.129052 7.86785 -147.166 0.8214329 10.01819 -4.384306 -0 32.99464 -0 -14.80183 5.873171 5.098571 -3.714018 -10.37623 -11.90191 -0 26.53574 -0 3.444162 -5.423761 21.78794 -1.716901 -1.428176 4.851152 -1.890612 13.82536 -2.488617 1.048416 24.49947 7.304995 7.181978 -15.57461 5.244898 3.61714 -20.03964 12.66979 84.09522 26.80663 -8.378766 -0 0 16.09563 -27.79283 11.71642 11.21188 7.717319 -21.81287 -7.939253 -94.8744 7.066937 22.06819 -0 0 5.529277 21.38257 17.58211 -16.03218
-1668.779 94.21677 931.2518 -7.087258 7.905427 -147.4705 0.8214116 10.01776 -4.384327 -0 32.99497 -0 -14.8019 5.873385 5.098671 -3.714073 -10.37596 -11.90196 -0 26.53575 -0 3.444359 -5.423813 21.78795 -1.716914 -1.428198 4.851115 -1.890598 13.82543 -2.488677 1.048379 24.49944 7.305054 7.182031 -15.57469 5.244898 3.61721 -20.03961 12.66983 84.09525 26.80673 -8.378912 -0 0 16.09553 -27.79283 11.71642 11.21182 7.717355 -21.813 -7.939294 -94.87429 7.066755 22.06802 -0 0 5.529088 21.38291 17.58199 -16.0326
-1672.163 94.23583 927.461 -7.045261 7.942787 -147.7749 0.8214079 10.01732 -4.384348 -0 32.9952 -0 -14.80197 5.873571 5.098761 -3.714112 -10.3757 -11.90198 -0 26.53583 -0 3.444569 -5.423845 21.78797 -1.716922 -1.428222 4.851086 -1.890581 13.82552 -2.488744 1.048341 24.49941 7.305106 7.182083 -15.57475 5.244891 3.617279 -20.0396 12.66988 84.09527 26.80684 -8.379068 -0 0 16.09544 -27.79282 11.71645 11.21174 7.717392 -21.81313 -7.939344 -94.87419 7.06654 22.06785 -0 0 5.528903 21.38327 17.58188 -16.03307
-1675.528 94.2549 923.6523 -7.00306 7.979929 -148.0795 0.8214211 10.01689 -4.384368 -0 32.99534 -0 -14.80204 5.873723 5.098838 -3.714137 -10.37547 -11.90198 -0 26.53597 -0 3.444787 -5.423857 21.78798 -1.716925 -1.428249 4.851065 -1.890561 13.82561 -2.488816 1.048304 24.49937 7.305148 7.182132 -15.57481 5.244877 3.617344 -20.03959 12.66993 84.0953 26.80693 -8.379229 -0 0 16.09536 -27.79281 11.71649 11.21166 7.717428 -21.81328 -7.9394 -94.87409 7.0663 22.06768 -0 0 5.528726 21.38365 17.58176 -16.03356
-1678.872 94.27398 919.8258 -6.960658 8.016853 -148.3841 0.8214503 10.01648 -4.384386 -0 32.99538 -0 -14.8021 5.873839 5.098903 -3.714145 -10.37526 -11.90196 -0 26.53617 -0 3.445006 -5.423849 21.78799 -1.716922 -1.428276 4.851052 -1.890538 13.82571 -2.48889 1.048269 24.49933 7.305181 7.182176 -15.57486 5.244855 3.617404 -20.03959 12.66999 84.09532 26.80701 -8.379391 -0 0 16.0953 -27.7928 11.71654 11.21158 7.717463 -21.81343 -7.939461 -94.87399 7.066042 22.06753 -0 0 5.528563 21.38404 17.58164 -16.03406
-1682.196 94.29306 915.9817 -6.918054 8.053559 -148.6887 0.8214942 10.0161 -4.384403 -0 32.99533 -0 -14.80215 5.873916 5.098952 -3.714138 -10.37509 -11.90192 -0 26.53641 -0 3.44522 -5.423822 21.788 -1.716914 -1.428304 4.851048 -1.890515 13.82581 -2.488964 1.048237 24.49928 7.305203 7.182215 -15.57491 5.244828 3.617456 -20.0396 12.67004 84.09535 26.80707 -8.379549 -0 0 16.09526 -27.7928 11.71661 11.21149 7.717494 -21.81359 -7.939525 -94.87391 7.065775 22.06739 -0 0 5.528417 21.38442 17.58153 -16.03456
-1685.499 94.31214 912.1199 -6.875251 8.090047 -148.9934 0.8215509 10.01576 -4.384417 -0 32.99518 -0 -14.80219 5.873954 5.098985 -3.714116 -10.37495 -11.90186 -0 26.53669 -0 3.445423 -5.423778 21.788 -1.716901 -1.428331 4.851052 -1.890491 13.8259 -2.489037 1.048208 24.49924 7.305214 7.182248 -15.57494 5.244795 3.6175 -20.03961 12.67009 84.09538 26.80712 -8.379698 -0 0 16.09523 -27.79279 11.71669 11.21141 7.717522 -21.81374 -7.93959 -94.87383 7.065507 22.06727 -0 0 5.528293 21.38478 17.58143 -16.03504
-1688.782 94.33123 908.2408 -6.832249 8.126315 -149.2982 0.8216183 10.01547 -4.384428 -0 32.99496 -0 -14.80223 5.873953 5.099001 -3.714081 -10.37486 -11.90178 -0 26.53701 -0 3.445608 -5.423717 21.788 -1.716885 -1.428357 4.851064 -1.890466 13.826 -2.489105 1.048183 24.49919 7.305215 7.182274 -15.57496 5.244759 3.617535 -20.03963 12.67014 84.0954 26.80715 -8.379834 -0 0 16.09522 -27.79278 11.71677 11.21133 7.717545 -21.81389 -7.939654 -94.87377 7.065245 22.06717 -0 0 5.528192 21.38511 17.58133 -16.03549
-1692.044 94.35031 904.3442 -6.789048 8.162363 -149.6031 0.8216941 10.01524 -4.384437 -0 32.99465 -0 -14.80225 5.873914 5.099001 -3.714033 -10.3748 -11.90169 -0 26.53734 -0 3.445772 -5.423644 21.788 -1.716864 -1.428381 4.851083 -1.890443 13.82609 -2.489167 1.048163 24.49914 7.305206 7.182292 -15.57497 5.244721 3.61756 -20.03966 12.67019 84.09542 26.80716 -8.379954 -0 0 16.09522 -27.79277 11.71686 11.21126 7.717564 -21.81402 -7.939715 -94.87372 7.064998 22.0671 -0 0 5.528118 21.38541 17.58125 -16.0359
-1695.286 94.36939 900.4305 -6.745651 8.19819 -149.908 0.8217757 10.01507 -4.384442 -0 32.99429 -0 -14.80227 5.87384 5.098986 -3.713976 -10.37479 -11.90159 -0 26.53768 -0 3.44591 -5.423559 21.78799 -1.716841 -1.428402 4.851108 -1.890421 13.82616 -2.489222 1.048149 24.4991 7.305186 7.182303 -15.57497 5.244681 3.617575 -20.03969 12.67023 84.09545 26.80716 -8.380055 -0 0 16.09524 -27.79276 11.71695 11.2112 7.717577 -21.81414 -7.939771 -94.87369 7.064771 22.06705 -0 0 5.528072 21.38566 17.58119 -16.03626
-1698.507 94.38847 896.4996 -6.702057 8.233795 -150.213 0.8218607 10.01496 -4.384444 -0 32.99388 -0 -14.80227 5.873734 5.098956 -3.71391 -10.37482 -11.90148 -0 26.53802 -0 3.446019 -5.423467 21.78799 -1.716816 -1.42842 4.851139 -1.890401 13.82623 -2.489269 1.04814 24.49906 7.305158 7.182306 -15.57496 5.24464 3.617579 -20.03973 12.67027 84.09546 26.80715 -8.380135 -0 0 16.09528 -27.79275 11.71704 11.21114 7.717585 -21.81424 -7.939821 -94.87367 7.064571 22.06702 -0 0 5.528053 21.38587 17.58114 -16.03656
-1701.707 94.40753 892.5516 -6.658268 8.269175 -150.5181 0.8219463 10.01491 -4.384443 -0 32.99343 -0 -14.80226 5.8736 5.098912 -3.713838 -10.37488 -11.90136 -0 26.53835 -0 3.446097 -5.42337 21.78798 -1.71679 -1.428435 4.851175 -1.890384 13.82629 -2.489305 1.048136 24.49903 7.305122 7.182301 -15.57494 5.244601 3.617573 -20.03977 12.67029 84.09548 26.80711 -8.380192 -0 0 16.09533 -27.79275 11.71712 11.2111 7.717588 -21.81432 -7.939865 -94.87367 7.064403 22.06703 -0 0 5.528061 21.38602 17.58111 -16.03678
